<?xml version="1.0" encoding="utf-8"?><svg width="124" height="84" viewBox="0 0 124 84" xmlns="http://www.w3.org/2000/svg" xmlns:xlink="http://www.w3.org/1999/xlink"><svg fill="rgba(0,0,0,.5)" height="40" viewBox="-10 -10 44 44" width="40" id="arrow" x="42" y="42" xmlns="http://www.w3.org/2000/svg"><path d="M8 5v14l11-7z"/><path d="M0 0h24v24H0z" fill="none"/></svg><svg fill="rgba(0,0,0,.5)" height="40" viewBox="-10 -10 44 44" width="40" id="arrow1" x="84" xmlns="http://www.w3.org/2000/svg"><path d="M8.59 16.34l4.58-4.59-4.58-4.59L10 5.75l6 6-6 6z"/><path d="M0-.25h24v24H0z" fill="none"/></svg><svg fill="rgba(0,0,0,.5)" height="42" viewBox="-10 -10 44 44" width="42" id="close" xmlns="http://www.w3.org/2000/svg"><path d="M19 6.41L17.59 5 12 10.59 6.41 5 5 6.41 10.59 12 5 17.59 6.41 19 12 13.41 17.59 19 19 17.59 13.41 12z"/><path d="M0 0h24v24H0z" fill="none"/></svg><svg fill="#fff" height="42" viewBox="-10 -10 44 44" width="42" id="close1" x="42" xmlns="http://www.w3.org/2000/svg"><path d="M19 6.41L17.59 5 12 10.59 6.41 5 5 6.41 10.59 12 5 17.59 6.41 19 12 13.41 17.59 19 19 17.59 13.41 12z"/><path d="M0 0h24v24H0z" fill="none"/></svg><svg fill="rgba(0,0,0,.5)" height="42" viewBox="-10 -10 44 44" width="42" id="search" y="42" xmlns="http://www.w3.org/2000/svg"><path d="M15.5 14h-.79l-.28-.27A6.471 6.471 0 0 0 16 9.5 6.5 6.5 0 1 0 9.5 16c1.61 0 3.09-.59 4.23-1.57l.27.28v.79l5 4.99L20.49 19l-4.99-5zm-6 0C7.01 14 5 11.99 5 9.5S7.01 5 9.5 5 14 7.01 14 9.5 11.99 14 9.5 14z"/><path d="M0 0h24v24H0z" fill="none"/></svg></svg>